import * as t from '../libs/three.js'
var loader = new t.FontLoader
var font = loader.parse(
{"glyphs":{"0":{"ha":792,"x_min":33,"x_max":765,"o":"m 396 174 q 548 494 548 174 q 396 819 548 814 q 250 494 244 814 q 396 174 244 174 m 396 -5 q 33 494 49 0 q 396 1004 49 987 q 765 494 743 987 q 396 -5 743 0 z "},"1":{"ha":510,"x_min":33,"x_max":418,"o":"m 212 98 l 212 798 l 130 798 q 33 895 38 798 q 130 987 38 977 l 326 987 q 418 890 412 982 l 418 98 q 315 0 412 0 q 212 98 212 0 z "},"2":{"ha":792,"x_min":65,"x_max":732,"o":"m 374 184 l 624 184 q 732 92 727 179 q 635 0 727 0 l 168 0 q 65 92 65 0 q 92 163 60 119 q 179 260 136 212 q 439 575 358 450 q 488 705 488 640 q 391 814 477 803 q 266 689 304 814 q 174 591 233 586 q 71 689 71 591 q 396 1004 98 966 q 705 716 689 982 q 461 288 705 564 q 374 184 396 212 z "},"3":{"ha":792,"x_min":43,"x_max":727,"o":"m 374 1004 q 673 749 635 987 q 559 537 667 608 q 727 293 716 456 q 380 -5 694 11 q 43 244 87 5 q 152 336 49 320 q 228 266 190 331 q 380 174 288 174 q 510 304 499 179 q 385 423 510 401 q 277 521 277 439 q 369 613 277 591 q 472 722 472 640 q 374 814 467 808 q 244 732 298 814 q 163 678 206 678 q 76 781 81 684 q 374 1004 114 971 z "},"4":{"ha":792,"x_min":22,"x_max":776,"o":"m 456 217 l 119 217 q 22 298 27 217 q 43 363 16 331 l 353 922 q 494 1004 391 1004 q 656 830 651 993 l 656 401 l 678 401 q 776 309 765 391 q 678 217 765 222 l 656 217 l 656 98 q 553 0 656 0 q 456 98 450 0 l 456 217 m 456 401 l 456 787 l 450 787 l 266 401 l 456 401 z "},"5":{"ha":792,"x_min":43,"x_max":716,"o":"m 347 798 l 326 651 q 429 662 374 656 q 716 369 694 640 q 353 -5 705 0 q 43 168 60 16 q 141 266 49 255 q 217 228 163 266 q 353 174 298 174 q 499 358 483 179 q 369 499 494 494 q 277 472 326 499 q 206 450 239 450 q 125 515 136 450 q 125 564 125 543 l 163 857 q 271 987 174 998 l 602 987 q 705 901 694 982 q 608 798 700 798 l 347 798 z "},"6":{"ha":792,"x_min":49,"x_max":749,"o":"m 369 624 q 456 640 412 640 q 749 326 722 613 q 396 -5 716 11 q 49 326 71 5 q 401 960 65 613 q 445 998 418 977 q 488 1004 467 1004 q 586 906 570 982 q 559 846 581 873 q 488 765 526 808 q 369 624 396 662 m 396 472 q 266 326 271 461 q 396 184 271 190 q 532 326 521 190 q 396 472 521 461 z "},"7":{"ha":743,"x_min":22,"x_max":727,"o":"m 130 141 l 477 798 l 125 798 q 22 895 22 798 q 125 987 22 982 l 624 987 q 727 890 711 982 q 694 798 727 857 l 353 98 q 342 81 347 87 q 233 0 298 -5 q 119 92 130 0 q 125 119 119 103 q 130 141 125 130 z "},"8":{"ha":792,"x_min":54,"x_max":743,"o":"m 396 450 q 271 315 277 439 q 396 174 277 179 q 526 315 510 179 q 396 450 521 445 m 396 -5 q 54 298 76 11 q 206 543 54 450 q 98 738 98 613 q 396 1004 114 982 q 700 738 678 982 q 591 543 694 608 q 743 298 738 461 q 396 -5 722 5 m 396 825 q 298 716 298 819 q 396 613 304 613 q 499 716 494 613 q 396 825 494 819 z "},"9":{"ha":792,"x_min":49,"x_max":749,"o":"m 429 363 l 429 369 q 342 353 385 353 q 49 662 76 374 q 396 1004 76 971 q 749 662 722 982 q 396 27 727 369 q 353 0 374 5 q 309 -5 326 -5 q 212 87 217 5 q 239 141 212 109 q 326 239 277 184 q 429 363 401 326 m 396 515 q 532 662 521 521 q 396 803 521 792 q 266 662 271 792 q 396 515 271 521 z "}," ":{"ha":369,"x_min":0,"x_max":0,"o":""},"!":{"ha":461,"x_min":125,"x_max":342,"o":"m 130 374 l 130 911 q 233 1004 130 998 q 331 911 320 993 l 331 374 q 233 282 320 288 q 130 374 136 288 m 233 -5 q 125 92 130 0 q 233 201 130 190 q 342 92 331 190 q 233 -5 331 0 z "},"\"":{"ha":613,"x_min":98,"x_max":515,"o":"m 353 684 l 353 922 q 434 1004 353 998 q 515 922 510 998 l 515 684 q 434 602 510 602 q 353 684 353 602 m 98 684 l 98 922 q 184 1004 98 998 q 266 922 260 998 l 266 684 q 184 602 260 602 q 98 684 98 602 z "},"#":{"ha":830,"x_min":0,"x_max":836,"o":"m 206 418 l 228 575 l 109 575 q 43 640 43 575 q 109 705 43 700 l 250 705 l 277 933 q 347 998 277 998 q 412 944 407 993 q 407 922 412 928 q 407 906 407 911 l 380 705 l 515 705 l 543 933 q 613 998 553 998 q 678 944 673 993 q 673 922 678 928 q 673 906 673 911 l 646 705 l 765 705 q 836 640 830 700 q 765 575 830 575 l 629 575 l 608 418 l 727 418 q 792 347 781 412 q 727 282 787 282 l 586 282 l 553 60 q 488 0 543 0 q 423 49 423 0 q 423 81 423 65 l 450 282 l 320 282 l 288 60 q 217 0 282 0 q 157 49 157 0 q 157 81 157 65 l 184 282 l 65 282 q 0 347 0 282 q 65 418 5 412 l 206 418 m 363 575 l 342 418 l 472 418 l 494 575 l 363 575 z "},"$":{"ha":743,"x_min":27,"x_max":722,"o":"m 401 391 l 401 190 q 494 304 488 212 q 401 391 488 358 m 331 640 l 331 798 q 255 716 255 776 q 331 640 255 662 m 331 184 l 331 418 q 33 689 22 477 q 331 1004 43 955 l 331 1047 q 369 1112 320 1112 q 401 1047 401 1112 l 401 1004 q 646 868 635 977 q 553 765 635 765 q 472 781 526 765 q 401 803 429 798 l 401 618 q 423 608 412 613 q 722 304 727 532 q 401 0 700 22 l 401 -5 l 401 -43 q 369 -114 401 -114 q 331 -43 326 -114 l 331 -5 q 27 141 27 5 q 119 239 33 228 q 217 212 146 239 q 331 184 288 184 z "},"%":{"ha":998,"x_min":43,"x_max":960,"o":"m 255 700 q 331 781 326 700 q 255 863 326 857 q 184 781 184 857 q 255 700 184 700 m 206 103 l 667 971 q 732 1015 684 1015 q 814 939 803 1004 q 803 895 814 917 l 336 22 q 331 16 326 11 q 271 -16 304 -16 q 195 49 201 0 q 206 103 195 81 m 255 559 q 43 781 60 575 q 255 1004 60 982 q 472 781 450 982 q 255 559 450 575 m 743 -5 q 532 206 548 5 q 743 434 548 412 q 960 206 939 412 q 743 -5 939 5 m 743 125 q 819 206 814 125 q 743 293 808 288 q 673 206 678 282 q 743 125 673 125 z "},"&":{"ha":977,"x_min":33,"x_max":944,"o":"m 553 250 l 353 472 q 233 304 228 385 q 380 168 233 168 q 553 250 472 163 m 548 543 l 694 385 l 749 445 q 857 510 803 510 q 933 423 928 499 q 857 293 933 374 l 819 255 l 917 146 q 944 76 944 109 q 846 -5 933 0 q 776 16 803 0 l 678 114 q 374 -5 532 -5 q 33 282 43 0 q 244 586 33 461 q 152 770 146 673 q 445 1004 157 987 q 727 787 711 982 q 548 543 722 640 m 537 765 q 445 846 532 836 q 358 776 363 836 q 434 656 347 732 q 537 765 532 705 z "},"'":{"ha":331,"x_min":81,"x_max":250,"o":"m 81 684 l 81 922 q 168 1004 81 998 q 250 922 244 998 l 250 684 q 168 602 244 602 q 81 684 81 602 z "},"(":{"ha":331,"x_min":54,"x_max":326,"o":"m 239 1004 q 326 922 315 993 q 304 836 320 901 q 228 396 228 613 q 293 -5 228 174 q 293 -16 293 -5 q 326 -114 326 -98 q 239 -201 320 -195 q 168 -152 195 -201 q 54 396 65 33 q 195 987 76 846 q 239 1004 212 1004 z "},")":{"ha":331,"x_min":5,"x_max":282,"o":"m 98 -201 q 5 -125 5 -195 q 27 -43 5 -103 q 33 -33 27 -33 q 103 396 98 157 q 43 808 98 629 q 5 917 11 863 q 98 1004 5 998 q 168 955 136 1004 q 282 396 266 760 q 141 -184 255 -43 q 98 -201 125 -195 z "},"*":{"ha":537,"x_min":38,"x_max":499,"o":"m 271 998 q 342 933 336 993 q 336 890 342 922 q 331 846 331 857 q 353 863 336 852 q 429 901 401 901 q 499 825 488 895 q 418 749 499 781 q 391 738 396 738 q 418 722 401 727 q 499 651 499 694 q 429 570 488 575 q 358 602 401 570 q 331 629 336 618 q 336 575 331 608 q 342 543 336 548 q 271 477 336 477 q 201 543 201 477 q 212 629 201 575 q 168 602 190 613 q 109 570 130 564 q 38 651 43 575 q 114 722 38 689 q 152 738 141 732 q 114 749 141 738 q 38 825 33 776 q 109 901 43 895 q 179 863 130 901 q 212 846 190 857 q 201 933 201 895 q 271 998 201 993 z "},"+":{"ha":830,"x_min":49,"x_max":787,"o":"m 331 434 l 331 635 q 418 722 331 716 q 499 635 488 716 l 499 434 l 700 434 q 787 353 781 429 q 700 266 781 266 l 499 266 l 499 65 q 418 -5 494 0 q 331 65 331 0 l 331 266 l 130 266 q 49 353 54 266 q 130 434 49 429 l 331 434 z "},",":{"ha":369,"x_min":-5,"x_max":293,"o":"m 277 71 l 157 -130 q 81 -174 130 -163 q -5 -81 0 -163 q 0 -38 -5 -65 q 5 -27 0 -27 l 119 168 q 201 217 141 206 q 293 125 282 206 q 282 81 293 109 q 277 71 277 71 z "},"-":{"ha":830,"x_min":49,"x_max":787,"o":"m 130 434 l 700 434 q 787 353 781 429 q 700 266 781 266 l 130 266 q 49 353 54 266 q 130 434 49 429 z "},".":{"ha":369,"x_min":76,"x_max":293,"o":"m 76 92 q 184 201 81 190 q 293 92 282 190 q 184 -5 282 0 q 76 92 81 0 z "},"/":{"ha":564,"x_min":11,"x_max":553,"o":"m 22 98 l 396 955 q 472 1004 407 1004 q 553 928 543 993 q 548 911 553 922 q 543 890 543 901 l 174 33 q 92 -5 146 -5 q 11 60 11 0 q 22 98 11 71 z "},":":{"ha":369,"x_min":76,"x_max":293,"o":"m 76 537 q 184 646 81 635 q 293 537 282 635 q 184 429 282 434 q 76 537 81 434 m 76 92 q 184 201 81 190 q 293 92 282 190 q 184 -5 282 0 q 76 92 81 0 z "},";":{"ha":369,"x_min":-5,"x_max":293,"o":"m 277 71 l 157 -130 q 81 -174 130 -163 q -5 -81 0 -163 q 0 -38 -5 -65 q 5 -27 0 -27 l 119 168 q 201 217 141 206 q 293 125 282 206 q 282 81 293 109 q 277 71 277 71 m 76 537 q 184 646 81 635 q 293 537 282 635 q 184 429 282 434 q 76 537 81 434 z "},"<":{"ha":830,"x_min":49,"x_max":787,"o":"m 271 353 l 732 157 q 787 87 787 136 q 716 0 781 0 q 651 22 689 0 l 98 271 q 49 353 49 288 q 98 429 49 407 l 651 684 q 716 705 700 705 q 787 613 781 694 q 732 543 787 559 l 271 353 z "},"=":{"ha":830,"x_min":49,"x_max":787,"o":"m 130 591 l 700 591 q 787 505 781 586 q 700 423 781 423 l 130 423 q 49 505 49 423 q 130 591 49 586 m 130 277 l 700 277 q 787 195 781 271 q 700 114 781 114 l 130 114 q 49 195 49 114 q 130 277 49 271 z "},">":{"ha":830,"x_min":49,"x_max":787,"o":"m 98 157 l 559 353 l 98 543 q 49 613 43 559 q 114 705 49 694 q 184 684 130 705 l 732 429 q 787 353 781 412 q 732 271 781 288 l 184 22 q 114 0 141 0 q 49 87 49 5 q 98 157 43 136 z "},"?":{"ha":667,"x_min":5,"x_max":646,"o":"m 206 380 l 206 515 q 298 586 206 559 q 315 591 304 586 q 429 711 429 613 q 315 814 418 798 q 184 738 250 814 q 87 678 125 678 q 5 776 5 678 q 315 1004 22 971 q 646 711 624 982 q 401 429 640 488 l 401 380 q 304 282 396 282 q 206 380 206 282 m 304 -5 q 195 92 201 0 q 304 201 201 190 q 412 92 401 190 q 304 -5 401 0 z "},"@":{"ha":1107,"x_min":43,"x_max":1069,"o":"m 499 353 q 640 499 624 363 q 532 618 629 608 q 401 472 418 602 q 499 353 407 358 m 613 277 q 467 206 548 206 q 260 450 282 222 q 532 760 282 738 q 694 678 635 754 l 694 694 q 776 760 689 760 q 836 722 830 754 q 830 678 836 694 l 776 423 q 770 401 776 418 q 770 380 765 380 q 803 347 770 347 q 944 559 933 385 q 553 879 917 852 q 168 494 195 846 q 553 109 201 141 q 846 174 722 103 q 873 195 852 179 q 939 233 917 233 q 987 184 982 228 q 949 109 987 146 q 553 -5 814 -5 q 43 494 81 27 q 553 1004 87 960 q 1069 559 1025 955 q 711 206 1053 271 q 613 277 613 206 z "},"A":{"ha":873,"x_min":5,"x_max":873,"o":"m 11 136 l 293 890 q 439 1004 331 998 q 591 890 543 998 l 863 136 q 873 81 868 98 q 776 0 868 0 q 673 65 694 0 l 635 195 l 250 195 l 206 65 q 103 0 179 0 q 5 87 11 0 q 5 125 5 98 q 11 136 11 130 m 439 787 l 309 385 l 570 385 l 439 787 z "},"B":{"ha":792,"x_min":65,"x_max":781,"o":"m 65 103 l 65 884 q 174 987 65 982 l 439 987 q 700 743 684 966 q 570 543 700 591 l 570 537 q 781 304 765 494 q 461 0 770 5 l 174 0 q 65 103 65 0 m 271 803 l 271 597 l 380 597 q 494 705 483 602 q 380 803 488 792 l 271 803 m 271 412 l 271 184 l 434 184 q 564 304 559 184 q 418 412 559 407 l 271 412 z "},"C":{"ha":846,"x_min":22,"x_max":814,"o":"m 22 494 q 499 1004 54 966 q 798 852 787 987 q 716 760 792 760 q 646 770 689 760 q 499 803 597 798 q 239 488 250 787 q 499 184 255 195 q 651 222 570 179 q 722 244 694 244 q 814 146 798 239 q 499 -5 803 0 q 22 494 49 16 z "},"D":{"ha":922,"x_min":65,"x_max":890,"o":"m 65 103 l 65 884 q 168 987 71 977 l 401 987 q 890 483 868 966 q 412 0 863 22 l 174 0 q 65 103 65 5 m 271 798 l 271 190 l 412 190 q 673 488 656 195 q 396 798 667 792 l 271 798 z "},"E":{"ha":640,"x_min":65,"x_max":624,"o":"m 65 103 l 65 868 q 168 987 65 982 l 515 987 q 613 895 602 982 q 515 798 602 798 l 271 798 l 271 597 l 499 597 q 602 499 591 586 q 499 401 591 407 l 271 401 l 271 190 l 526 190 q 624 98 618 184 q 526 0 613 0 l 168 0 q 65 103 71 5 z "},"F":{"ha":613,"x_min":65,"x_max":618,"o":"m 65 98 l 65 879 q 168 987 71 977 l 526 987 q 618 895 608 982 q 526 798 613 798 l 271 798 l 271 597 l 488 597 q 586 499 575 591 q 488 401 575 401 l 271 401 l 271 98 q 168 0 266 0 q 65 98 65 0 z "},"G":{"ha":977,"x_min":22,"x_max":955,"o":"m 597 586 l 830 586 q 955 450 955 586 q 499 -5 928 11 q 22 494 49 16 q 499 1004 54 966 q 884 808 836 982 q 798 711 879 716 q 700 749 754 711 q 499 814 602 814 q 239 494 250 798 q 499 174 250 184 q 738 396 727 184 l 597 396 q 499 494 499 396 q 597 586 505 575 z "},"H":{"ha":977,"x_min":65,"x_max":917,"o":"m 65 98 l 65 890 q 168 998 65 993 q 271 890 266 993 l 271 597 l 705 597 l 705 890 q 814 998 705 993 q 917 890 911 993 l 917 98 q 814 0 911 0 q 705 98 705 0 l 705 401 l 271 401 l 271 98 q 168 0 266 0 q 65 98 65 0 z "},"I":{"ha":331,"x_min":65,"x_max":271,"o":"m 65 98 l 65 890 q 168 998 65 993 q 271 890 266 993 l 271 98 q 168 0 266 0 q 65 98 65 0 z "},"J":{"ha":564,"x_min":-11,"x_max":510,"o":"m 510 890 l 510 277 q 239 -5 505 0 q -11 141 0 0 q 60 228 0 217 q 136 201 81 228 q 222 174 190 174 q 304 293 304 168 l 304 890 q 407 998 304 993 q 510 890 505 993 z "},"K":{"ha":846,"x_min":65,"x_max":846,"o":"m 65 92 l 65 895 q 168 998 71 987 q 271 895 266 993 l 271 597 l 613 960 q 694 998 646 993 q 798 895 787 982 q 727 787 798 846 l 467 526 l 787 195 q 792 184 787 190 q 846 87 846 125 q 738 0 841 0 q 629 54 684 0 l 271 445 l 271 92 q 168 0 260 0 q 65 92 65 0 z "},"L":{"ha":591,"x_min":65,"x_max":618,"o":"m 65 114 l 65 890 q 168 998 65 993 q 271 890 266 993 l 271 190 l 515 190 q 618 92 613 184 q 515 0 602 0 l 168 0 q 65 114 65 0 z "},"M":{"ha":1204,"x_min":33,"x_max":1177,"o":"m 33 114 l 163 890 q 298 998 195 987 q 439 895 401 993 l 602 347 l 608 347 l 770 895 q 906 998 803 987 q 1047 890 1009 987 l 1172 114 q 1177 92 1177 103 q 1074 0 1166 0 q 966 87 977 0 l 884 656 l 716 71 q 602 0 689 0 q 494 71 515 0 l 326 656 l 244 87 q 136 0 228 0 q 33 92 33 0 q 33 114 33 103 z "},"N":{"ha":949,"x_min":54,"x_max":895,"o":"m 54 98 l 54 890 q 157 998 54 993 q 244 949 212 987 l 684 363 l 689 363 l 689 890 q 792 998 689 993 q 895 890 890 993 l 895 98 q 792 0 890 0 q 705 38 738 0 l 266 618 l 260 618 l 260 98 q 157 0 255 0 q 54 98 54 0 z "},"O":{"ha":998,"x_min":22,"x_max":977,"o":"m 499 174 q 765 494 749 184 q 499 814 743 798 q 239 494 250 798 q 499 174 250 184 m 499 -5 q 22 494 49 16 q 499 1004 54 966 q 977 494 939 966 q 499 -5 944 16 z "},"P":{"ha":770,"x_min":65,"x_max":770,"o":"m 65 98 l 65 879 q 168 987 65 982 l 418 987 q 770 656 749 966 q 423 326 749 347 l 271 326 l 271 98 q 168 0 266 0 q 65 98 65 0 m 271 803 l 271 510 l 412 510 q 553 656 543 515 q 412 803 543 792 l 271 803 z "},"Q":{"ha":998,"x_min":22,"x_max":1015,"o":"m 825 -11 l 743 43 q 499 -5 646 -5 q 22 494 49 16 q 499 1004 54 966 q 977 494 939 966 q 884 174 971 293 l 966 103 q 1015 22 1015 65 q 917 -54 1004 -43 q 825 -11 879 -54 m 662 369 l 727 315 q 765 494 765 396 q 499 814 743 798 q 239 494 250 798 q 499 174 250 184 q 591 184 548 174 l 543 233 q 515 288 515 260 q 608 391 521 380 q 662 369 635 385 z "},"R":{"ha":770,"x_min":65,"x_max":765,"o":"m 65 98 l 65 879 q 168 987 60 982 l 412 987 q 760 673 754 982 q 505 412 749 456 l 738 157 q 765 98 765 130 q 662 0 754 0 q 581 27 602 0 l 271 401 l 271 98 q 168 0 266 0 q 65 98 65 0 m 271 798 l 271 553 l 412 553 q 543 673 537 553 q 412 798 537 792 l 271 798 z "},"S":{"ha":743,"x_min":27,"x_max":722,"o":"m 374 1004 q 646 868 635 987 q 553 765 635 765 q 477 776 526 765 q 369 803 434 798 q 255 716 255 798 q 412 608 255 656 q 722 304 722 521 q 363 -5 700 11 q 27 141 33 0 q 119 239 33 228 q 212 212 163 233 q 353 184 298 184 q 494 304 488 184 q 320 418 494 369 q 33 689 33 499 q 374 1004 49 977 z "},"T":{"ha":662,"x_min":-5,"x_max":684,"o":"m 228 98 l 228 798 l 76 798 q -5 895 0 798 q 76 987 0 982 l 591 987 q 684 895 673 982 q 591 798 678 798 l 439 798 l 439 98 q 331 0 429 0 q 228 98 228 0 z "},"U":{"ha":949,"x_min":54,"x_max":895,"o":"m 54 391 l 54 890 q 157 998 54 993 q 260 890 255 993 l 260 401 q 477 174 271 184 q 689 401 667 190 l 689 890 q 792 998 689 993 q 895 890 890 993 l 895 391 q 477 -5 863 22 q 54 391 81 16 z "},"V":{"ha":819,"x_min":0,"x_max":830,"o":"m 309 71 l 5 846 q 0 895 0 868 q 103 998 5 987 q 195 928 163 993 l 412 353 l 624 928 q 722 998 662 998 q 830 895 819 987 q 819 846 825 868 l 515 71 q 412 0 477 0 q 309 71 336 0 z "},"W":{"ha":1259,"x_min":11,"x_max":1248,"o":"m 195 98 l 16 857 q 11 906 5 879 q 109 998 16 987 q 222 895 195 998 l 336 309 l 342 309 l 521 917 q 629 998 548 993 q 738 917 705 993 l 917 309 l 922 309 l 1042 895 q 1150 998 1053 993 q 1248 906 1237 987 q 1242 857 1248 879 l 1069 98 q 933 0 1031 0 q 792 92 825 0 l 629 629 l 467 92 q 331 0 429 0 q 195 98 217 0 z "},"X":{"ha":846,"x_min":5,"x_max":846,"o":"m 27 157 l 304 532 l 81 836 q 54 895 54 857 q 163 998 60 987 q 255 944 206 993 l 423 700 l 597 944 q 689 998 640 993 q 792 895 781 987 q 770 836 792 857 l 548 532 l 819 157 q 846 87 841 125 q 738 0 836 0 q 651 38 678 0 l 423 353 l 195 38 q 109 0 168 0 q 5 87 11 0 q 27 157 5 136 z "},"Y":{"ha":743,"x_min":-5,"x_max":760,"o":"m 266 92 l 266 467 l 5 836 q 0 846 0 836 q -5 895 -5 873 q 87 998 0 987 q 174 955 141 993 l 374 667 l 570 955 q 656 998 602 993 q 760 895 749 987 q 738 836 754 857 l 477 467 l 477 92 q 374 0 467 0 q 266 92 271 0 z "},"Z":{"ha":819,"x_min":33,"x_max":792,"o":"m 293 184 l 694 184 q 792 92 787 179 q 694 0 781 5 l 146 0 q 33 98 38 0 q 60 179 27 146 l 505 803 l 141 803 q 43 895 43 803 q 141 987 49 977 l 651 987 q 765 890 754 982 q 732 798 765 836 l 293 184 z "},"[":{"ha":385,"x_min":60,"x_max":374,"o":"m 60 -103 l 60 906 q 163 1004 60 993 l 304 1004 q 374 928 369 998 q 304 846 369 846 l 239 846 l 239 -43 l 304 -43 q 374 -125 369 -43 q 304 -201 369 -195 l 163 -201 q 60 -103 60 -190 z "},"\\":{"ha":564,"x_min":11,"x_max":553,"o":"m 168 955 l 543 98 q 553 60 548 71 q 472 -5 548 0 q 396 33 407 0 l 22 890 q 11 911 16 901 q 11 928 11 922 q 92 1004 16 993 q 168 955 152 1004 z "},"]":{"ha":385,"x_min":11,"x_max":326,"o":"m 326 906 l 326 -103 q 222 -201 320 -190 l 87 -201 q 11 -125 11 -195 q 87 -43 11 -43 l 152 -43 l 152 846 l 87 846 q 11 928 11 846 q 87 1004 11 998 l 222 1004 q 326 906 320 993 z "},"^":{"ha":304,"x_min":-43,"x_max":363,"o":"m 5 1004 l 152 1063 l 304 1004 q 363 917 358 977 q 282 830 353 836 q 206 852 255 830 l 152 879 l 98 852 q 27 830 54 830 q -43 917 -33 841 q 5 1004 -38 977 z "},"_":{"ha":694,"x_min":-27,"x_max":732,"o":"m 694 -163 l 0 -163 q -27 -130 -22 -157 q 0 -92 -22 -92 l 694 -92 q 732 -130 727 -92 q 694 -163 727 -163 z "},"`":{"ha":304,"x_min":-5,"x_max":326,"o":"m 109 1058 l 277 993 l 288 987 q 326 933 320 966 q 250 830 315 836 q 222 830 228 830 q 195 846 212 836 l 38 906 q -5 987 -5 917 q 60 1074 0 1063 q 109 1058 81 1074 z "},"a":{"ha":792,"x_min":27,"x_max":738,"o":"m 738 618 l 738 125 q 646 0 743 0 q 548 76 564 0 q 358 -5 472 -5 q 27 369 43 11 q 358 754 49 722 q 548 662 483 749 q 646 749 559 738 q 738 618 743 749 m 228 369 q 385 168 239 174 q 543 369 526 179 q 385 570 526 559 q 228 369 239 559 z "},"b":{"ha":792,"x_min":54,"x_max":770,"o":"m 54 103 l 54 960 q 157 1069 60 1058 q 255 960 250 1063 l 255 684 q 445 754 331 749 q 770 358 743 732 q 439 -5 738 11 q 255 76 309 0 q 157 0 239 0 q 54 103 60 0 m 255 374 q 412 168 266 174 q 570 369 553 179 q 412 570 553 553 q 255 374 266 559 z "},"c":{"ha":640,"x_min":27,"x_max":629,"o":"m 629 629 q 553 532 618 537 q 483 548 526 532 q 396 570 429 570 q 228 369 233 559 q 396 168 239 179 q 494 190 423 168 q 543 206 532 206 q 629 119 618 195 q 385 -5 618 0 q 27 369 49 11 q 385 754 54 722 q 629 629 618 738 z "},"d":{"ha":792,"x_min":27,"x_max":738,"o":"m 738 960 l 738 103 q 640 0 732 0 q 543 76 559 0 q 358 -5 483 0 q 27 358 54 11 q 353 754 49 732 q 543 684 461 749 l 543 960 q 640 1069 543 1063 q 738 960 732 1063 m 543 374 q 385 570 526 559 q 228 369 239 559 q 385 168 239 174 q 543 374 526 174 z "},"e":{"ha":743,"x_min":16,"x_max":732,"o":"m 646 304 l 217 304 q 407 157 244 163 q 553 206 467 157 q 635 239 608 239 q 716 152 705 228 q 391 -5 678 11 q 16 369 33 5 q 374 754 43 722 q 732 391 689 722 q 646 304 732 298 m 212 434 l 532 434 q 374 591 505 586 q 212 434 233 581 z "},"f":{"ha":407,"x_min":-16,"x_max":467,"o":"m 103 103 l 103 564 l 60 564 q -16 651 -16 564 q 60 738 -5 732 l 103 738 l 103 841 q 315 1069 109 1058 q 450 977 445 1063 q 369 895 450 895 q 304 819 298 901 l 304 738 l 363 738 q 467 651 467 738 q 363 564 461 564 l 304 564 l 304 103 q 201 0 293 0 q 103 103 109 0 z "},"g":{"ha":792,"x_min":27,"x_max":738,"o":"m 738 635 l 738 60 q 358 -293 727 -282 q 38 -141 49 -266 q 119 -54 49 -65 q 206 -76 146 -54 q 369 -119 304 -119 q 543 33 532 -109 l 543 76 l 537 76 q 336 -5 472 -5 q 27 369 38 0 q 358 754 54 727 q 543 662 483 749 q 640 749 559 743 q 738 635 732 743 m 543 363 q 385 570 526 559 q 228 369 239 559 q 385 168 233 174 q 543 363 526 174 z "},"h":{"ha":770,"x_min":54,"x_max":716,"o":"m 54 103 l 54 960 q 157 1069 60 1058 q 255 960 250 1063 l 255 684 l 260 684 q 439 754 315 749 q 716 488 700 738 l 716 103 q 613 0 705 0 q 515 103 521 0 l 515 450 q 385 591 505 581 q 255 450 260 581 l 255 103 q 157 0 250 0 q 54 103 60 0 z "},"i":{"ha":304,"x_min":43,"x_max":266,"o":"m 54 103 l 54 635 q 152 749 54 738 q 255 635 250 738 l 255 103 q 152 0 244 0 q 54 103 60 0 m 152 1047 q 266 939 255 1031 q 152 825 255 830 q 43 939 54 830 q 152 1047 54 1036 z "},"j":{"ha":304,"x_min":43,"x_max":266,"o":"m 54 -179 l 54 635 q 152 749 54 738 q 255 635 250 738 l 255 -179 q 152 -293 250 -282 q 54 -179 54 -282 m 152 1047 q 266 939 255 1031 q 152 825 255 830 q 43 939 54 830 q 152 1047 54 1036 z "},"k":{"ha":694,"x_min":54,"x_max":694,"o":"m 54 103 l 54 960 q 157 1069 60 1058 q 255 960 250 1063 l 255 494 l 477 705 q 564 749 526 743 q 651 656 640 738 q 613 575 651 613 l 434 418 l 667 146 q 694 76 694 109 q 602 -5 684 0 q 505 43 548 -5 l 260 347 l 255 347 l 255 103 q 157 0 250 0 q 54 103 60 0 z "},"l":{"ha":304,"x_min":54,"x_max":255,"o":"m 54 103 l 54 960 q 152 1069 60 1058 q 255 960 244 1058 l 255 103 q 152 0 244 0 q 54 103 60 0 z "},"m":{"ha":1183,"x_min":54,"x_max":1128,"o":"m 54 103 l 54 635 q 157 749 54 738 q 250 673 233 743 q 434 754 326 754 q 640 656 564 749 q 852 754 738 743 q 1128 488 1118 743 l 1128 103 q 1025 0 1118 0 q 928 103 928 0 l 928 450 q 808 591 917 581 q 689 450 694 581 l 689 103 q 591 0 684 0 q 494 103 494 0 l 494 450 q 374 591 483 581 q 255 450 255 586 l 255 103 q 157 0 250 0 q 54 103 60 0 z "},"n":{"ha":770,"x_min":54,"x_max":716,"o":"m 54 103 l 54 635 q 157 749 54 738 q 250 673 233 743 q 439 754 304 754 q 716 488 700 738 l 716 103 q 613 0 705 0 q 515 103 521 0 l 515 450 q 385 591 505 581 q 255 450 260 581 l 255 103 q 157 0 250 0 q 54 103 60 0 z "},"o":{"ha":770,"x_min":27,"x_max":743,"o":"m 385 754 q 743 369 711 722 q 385 -5 716 11 q 27 369 49 11 q 385 754 54 722 m 385 570 q 228 369 239 559 q 385 168 239 174 q 543 369 526 174 q 385 570 526 559 z "},"p":{"ha":792,"x_min":54,"x_max":770,"o":"m 54 -179 l 54 635 q 157 749 54 738 q 255 662 239 743 q 445 754 309 749 q 770 358 743 732 q 439 -5 738 11 q 255 54 326 0 l 255 -179 q 157 -293 250 -288 q 54 -179 54 -282 m 255 374 q 412 168 266 174 q 570 369 553 179 q 412 570 553 553 q 255 374 266 559 z "},"q":{"ha":792,"x_min":27,"x_max":738,"o":"m 738 635 l 738 -179 q 640 -293 732 -288 q 543 -179 543 -288 l 543 54 q 358 -5 467 0 q 27 358 54 11 q 353 754 49 732 q 543 662 483 749 q 640 749 559 743 q 738 635 732 743 m 543 374 q 385 570 526 559 q 228 369 239 559 q 385 168 239 174 q 543 374 526 174 z "},"r":{"ha":461,"x_min":54,"x_max":494,"o":"m 54 103 l 54 646 q 157 749 54 738 q 255 662 250 743 q 396 749 309 749 q 494 640 488 738 q 407 553 494 586 q 374 543 385 548 q 255 412 250 494 l 255 103 q 152 0 244 0 q 54 103 60 0 z "},"s":{"ha":591,"x_min":16,"x_max":575,"o":"m 559 613 q 477 521 548 526 q 407 543 456 515 q 298 581 331 575 q 228 526 228 575 q 342 445 228 488 q 575 217 575 353 q 293 -5 553 0 q 16 136 38 11 q 98 228 27 217 q 190 190 136 228 q 309 157 255 157 q 385 217 385 152 q 266 293 385 250 q 38 521 38 380 q 309 754 49 738 q 559 613 543 732 z "},"t":{"ha":407,"x_min":-16,"x_max":456,"o":"m 103 103 l 103 564 l 60 564 q -16 651 -16 564 q 60 738 -5 732 l 103 738 l 103 857 q 206 971 109 960 q 304 857 293 960 l 304 738 l 363 738 q 456 651 450 732 q 363 564 450 564 l 304 564 l 304 103 q 206 0 298 0 q 103 103 109 0 z "},"u":{"ha":770,"x_min":54,"x_max":716,"o":"m 54 277 l 54 635 q 157 749 54 738 q 255 635 250 743 l 255 277 q 385 152 260 157 q 515 277 505 157 l 515 635 q 613 749 515 738 q 716 635 711 738 l 716 277 q 385 -5 705 0 q 54 277 60 0 z "},"v":{"ha":640,"x_min":0,"x_max":646,"o":"m 212 76 l 11 591 q 0 651 0 618 q 103 749 0 738 q 190 678 168 743 l 320 282 l 450 678 q 537 749 472 749 q 646 651 640 738 q 629 597 646 629 q 629 591 629 591 l 429 76 q 320 0 407 0 q 212 76 239 0 z "},"w":{"ha":1080,"x_min":11,"x_max":1069,"o":"m 201 92 l 33 570 q 11 618 16 597 q 11 667 5 646 q 109 749 16 743 q 206 667 184 743 l 320 288 l 439 662 q 543 749 461 749 q 640 662 613 749 l 760 288 l 879 667 q 971 749 895 743 q 1069 651 1063 743 q 1053 575 1069 618 l 879 92 q 760 0 841 0 q 646 87 667 0 l 543 407 l 537 407 l 434 87 q 320 0 407 0 q 201 92 233 0 z "},"x":{"ha":694,"x_min":0,"x_max":694,"o":"m 27 157 l 228 385 l 60 575 q 33 651 33 608 q 136 749 38 738 q 206 711 174 743 l 347 532 l 488 711 q 559 749 515 743 q 662 651 651 738 q 635 575 656 608 l 467 385 l 667 157 q 694 87 689 125 q 597 0 689 0 q 510 38 543 0 l 347 239 l 184 38 q 98 0 146 0 q 0 87 0 0 q 27 157 0 125 z "},"y":{"ha":667,"x_min":0,"x_max":673,"o":"m 228 60 l 5 608 q 0 662 0 629 q 92 749 5 732 q 190 678 163 743 l 331 298 l 477 678 q 575 749 499 743 q 673 662 662 732 q 662 608 667 629 l 326 -212 q 233 -293 293 -288 q 130 -206 136 -288 q 136 -152 130 -184 q 141 -146 136 -146 l 228 60 z "},"z":{"ha":667,"x_min":16,"x_max":651,"o":"m 33 125 l 347 564 l 114 564 q 27 651 27 564 q 114 738 27 732 l 570 738 q 635 678 629 732 q 613 618 635 646 l 298 174 l 564 174 q 651 87 646 168 q 564 0 646 0 l 98 0 q 16 71 16 0 q 22 109 16 81 q 33 125 27 119 z "},"{":{"ha":461,"x_min":-5,"x_max":450,"o":"m 119 -22 l 119 239 q 54 331 119 331 q -5 396 0 331 q 54 461 0 456 q 119 553 119 456 l 119 825 q 304 1004 114 1004 l 391 1004 q 450 944 445 1004 q 391 879 445 879 l 358 879 q 293 798 288 879 l 293 537 q 146 396 293 401 q 293 255 293 385 l 293 0 q 358 -76 293 -76 l 391 -76 q 450 -141 445 -76 q 391 -201 445 -201 l 304 -201 q 119 -22 114 -201 z "},"|":{"ha":304,"x_min":71,"x_max":239,"o":"m 239 987 l 239 65 q 152 -5 233 0 q 71 65 71 0 l 71 987 q 152 1069 71 1063 q 239 987 233 1063 z "},"}":{"ha":461,"x_min":11,"x_max":477,"o":"m 342 825 l 342 553 q 412 461 336 456 q 477 396 472 456 q 412 331 472 331 q 342 239 336 331 l 342 -22 q 157 -201 342 -201 l 71 -201 q 11 -141 11 -195 q 71 -76 11 -76 l 109 -76 q 168 0 163 -76 l 168 255 q 320 396 163 385 q 168 537 163 401 l 168 798 q 109 879 168 879 l 71 879 q 11 944 11 879 q 71 1004 11 998 l 157 1004 q 342 825 342 1004 z "},"~":{"ha":830,"x_min":54,"x_max":776,"o":"m 564 385 q 646 429 602 385 q 716 472 684 472 q 776 401 770 467 q 564 222 749 233 q 391 271 505 222 q 271 315 298 315 q 179 260 228 315 q 119 228 141 228 q 54 298 54 228 q 266 483 76 467 q 439 423 320 483 q 564 385 532 385 z "},"世":{"ha":1389,"x_min":27,"x_max":1318,"o":"m 732 825 l 987 825 l 987 1063 q 1074 1139 987 1139 q 1161 1058 1156 1134 l 1161 825 l 1237 825 q 1318 738 1313 819 q 1237 656 1313 656 l 1156 656 l 1156 326 q 1025 195 1166 184 l 705 195 q 559 331 543 174 l 559 656 l 358 656 l 358 92 q 374 71 353 65 l 1188 71 q 1280 0 1270 65 q 1199 -92 1280 -87 l 358 -92 q 184 71 174 -98 l 184 656 l 125 656 q 27 738 33 656 q 125 825 33 814 l 184 825 l 184 1053 q 266 1134 184 1123 q 358 1058 353 1128 l 358 825 l 559 825 l 559 1053 q 646 1134 559 1128 q 732 1053 727 1128 l 732 825 m 732 347 l 982 347 l 982 656 l 732 656 l 732 347 z "},"你":{"ha":1389,"x_min":27,"x_max":1340,"o":"m 336 770 l 336 613 q 553 1090 488 781 q 640 1139 564 1145 q 716 1063 716 1123 q 705 1015 711 1047 q 694 971 694 982 l 1259 971 q 1340 863 1335 966 q 1324 684 1340 825 q 1194 591 1302 553 q 1318 130 1253 385 q 1259 22 1329 49 q 1161 87 1183 11 q 1004 624 1112 277 q 1053 732 982 694 q 1156 689 1128 754 q 1166 787 1161 732 q 1150 814 1172 814 l 971 814 l 971 0 q 825 -152 971 -146 q 640 -130 722 -157 q 591 -22 570 -98 q 700 11 618 27 q 808 49 808 -11 l 808 814 l 646 814 q 629 781 635 798 q 608 732 613 749 q 743 646 743 787 q 591 81 689 331 q 472 38 553 11 q 429 152 401 76 q 581 678 559 456 q 483 521 521 581 q 336 510 407 434 l 336 -87 q 255 -157 331 -152 q 174 -92 174 -157 l 174 396 q 60 385 114 331 q 43 510 5 445 q 222 1090 168 705 q 309 1145 228 1145 q 385 1074 385 1134 q 347 857 374 993 q 336 770 342 814 z "},"好":{"ha":1389,"x_min":49,"x_max":1351,"o":"m 109 933 l 212 933 q 233 1107 217 1020 q 320 1150 244 1150 q 391 1090 391 1139 q 380 1004 385 1042 q 374 933 374 966 l 553 933 q 624 770 635 949 q 483 190 613 461 q 624 76 591 109 q 608 -33 656 22 q 505 -38 553 -81 q 401 43 494 -33 q 385 27 380 22 q 266 -109 309 -65 q 109 -125 174 -184 q 125 0 54 -60 q 157 27 136 5 q 266 141 239 92 q 228 163 255 146 q 54 331 49 298 q 98 488 54 353 q 184 765 146 618 l 103 765 q 49 846 49 765 q 109 933 54 928 m 711 1074 l 1226 1074 q 1264 922 1356 1036 q 1047 694 1069 722 q 1080 618 1047 673 q 1107 575 1096 586 l 1291 575 q 1351 494 1345 570 q 1297 412 1345 412 l 1166 412 q 1177 304 1172 353 q 1118 -43 1177 16 q 944 -125 1063 -119 q 662 -22 640 -130 q 743 60 667 60 q 960 54 939 22 q 1009 288 1015 71 q 993 407 1009 347 l 678 407 q 618 488 624 407 q 684 570 624 564 l 928 570 q 890 613 911 586 q 852 694 846 667 q 1025 911 852 722 l 711 911 q 711 1074 602 993 m 461 765 l 353 765 q 282 515 320 651 q 244 374 244 380 q 347 288 244 358 q 461 765 439 467 z "},"界":{"ha":1389,"x_min":38,"x_max":1356,"o":"m 217 1096 l 1183 1096 q 1280 998 1280 1096 l 1280 602 q 1183 510 1286 499 l 960 510 q 1318 298 1063 407 q 1329 163 1383 233 q 1177 179 1280 125 q 1042 255 1112 201 l 1042 -92 q 944 -152 1031 -157 q 868 -71 868 -136 l 868 342 q 803 510 760 450 l 624 510 q 559 391 656 450 q 184 -146 581 -114 q 76 -71 87 -146 q 179 16 81 0 q 385 266 369 43 q 43 195 87 87 q 130 326 11 271 q 450 510 326 385 l 206 510 q 109 613 103 505 l 109 987 q 217 1096 103 1096 m 266 933 l 266 868 l 613 868 l 613 933 l 266 933 m 776 933 l 776 868 l 1123 868 l 1123 933 l 776 933 m 266 667 l 613 667 l 613 727 l 266 727 l 266 667 m 776 667 l 1123 667 l 1123 727 l 776 727 l 776 667 z "}}}
